name C:\Users\u0101727\Documents\MyRepositories\upper-imu-dc\OpenSim\subject0\MA\MA_Splines\angle_in_n6_dof6_0.mot
datacolumns 7
datarows 47
range 50.01000000 50.47000000
endheader 
time	clav_prot	clav_elev	scapula_abduction	scapula_elevation	scapula_upward_rot	scapula_winging	
         50.01000000	        -36.17913537	         16.86370047	        -37.40470623	          7.08700750	         54.58874201	        -16.84364364	
         50.02000000	        -29.75473540	         16.86370047	        -37.40470623	          7.08700750	         54.58874201	        -16.84364364	
         50.03000000	        -23.33033544	         16.86370047	        -37.40470623	          7.08700750	         54.58874201	        -16.84364364	
         50.04000000	        -16.90593547	         16.86370047	        -37.40470623	          7.08700750	         54.58874201	        -16.84364364	
         50.05000000	        -49.02793530	         -7.65248351	        -27.66618321	          7.08700750	         54.58874201	        -16.84364364	
         50.06000000	        -42.60353533	         -7.65248351	        -27.66618321	          7.08700750	         54.58874201	        -16.84364364	
         50.07000000	        -36.17913537	         -7.65248351	        -27.66618321	          7.08700750	         54.58874201	        -16.84364364	
         50.08000000	        -29.75473540	         -7.65248351	        -27.66618321	          7.08700750	         54.58874201	        -16.84364364	
         50.09000000	        -23.33033544	         -7.65248351	        -27.66618321	          7.08700750	         54.58874201	        -16.84364364	
         50.10000000	        -16.90593547	         -7.65248351	        -27.66618321	          7.08700750	         54.58874201	        -16.84364364	
         50.11000000	        -49.02793530	         -2.74924671	        -27.66618321	          7.08700750	         54.58874201	        -16.84364364	
         50.12000000	        -42.60353533	         -2.74924671	        -27.66618321	          7.08700750	         54.58874201	        -16.84364364	
         50.13000000	        -36.17913537	         -2.74924671	        -27.66618321	          7.08700750	         54.58874201	        -16.84364364	
         50.14000000	        -29.75473540	         -2.74924671	        -27.66618321	          7.08700750	         54.58874201	        -16.84364364	
         50.15000000	        -23.33033544	         -2.74924671	        -27.66618321	          7.08700750	         54.58874201	        -16.84364364	
         50.16000000	        -16.90593547	         -2.74924671	        -27.66618321	          7.08700750	         54.58874201	        -16.84364364	
         50.17000000	        -49.02793530	          2.15399008	        -27.66618321	          7.08700750	         54.58874201	        -16.84364364	
         50.18000000	        -42.60353533	          2.15399008	        -27.66618321	          7.08700750	         54.58874201	        -16.84364364	
         50.19000000	        -36.17913537	          2.15399008	        -27.66618321	          7.08700750	         54.58874201	        -16.84364364	
         50.20000000	        -29.75473540	          2.15399008	        -27.66618321	          7.08700750	         54.58874201	        -16.84364364	
         50.21000000	        -23.33033544	          2.15399008	        -27.66618321	          7.08700750	         54.58874201	        -16.84364364	
         50.22000000	        -16.90593547	          2.15399008	        -27.66618321	          7.08700750	         54.58874201	        -16.84364364	
         50.23000000	        -49.02793530	          7.05722688	        -27.66618321	          7.08700750	         54.58874201	        -16.84364364	
         50.24000000	        -42.60353533	          7.05722688	        -27.66618321	          7.08700750	         54.58874201	        -16.84364364	
         50.25000000	        -36.17913537	          7.05722688	        -27.66618321	          7.08700750	         54.58874201	        -16.84364364	
         50.26000000	        -29.75473540	          7.05722688	        -27.66618321	          7.08700750	         54.58874201	        -16.84364364	
         50.27000000	        -23.33033544	          7.05722688	        -27.66618321	          7.08700750	         54.58874201	        -16.84364364	
         50.28000000	        -16.90593547	          7.05722688	        -27.66618321	          7.08700750	         54.58874201	        -16.84364364	
         50.29000000	        -49.02793530	         11.96046367	        -27.66618321	          7.08700750	         54.58874201	        -16.84364364	
         50.30000000	        -42.60353533	         11.96046367	        -27.66618321	          7.08700750	         54.58874201	        -16.84364364	
         50.31000000	        -36.17913537	         11.96046367	        -27.66618321	          7.08700750	         54.58874201	        -16.84364364	
         50.32000000	        -29.75473540	         11.96046367	        -27.66618321	          7.08700750	         54.58874201	        -16.84364364	
         50.33000000	        -23.33033544	         11.96046367	        -27.66618321	          7.08700750	         54.58874201	        -16.84364364	
         50.34000000	        -16.90593547	         11.96046367	        -27.66618321	          7.08700750	         54.58874201	        -16.84364364	
         50.35000000	        -49.02793530	         16.86370047	        -27.66618321	          7.08700750	         54.58874201	        -16.84364364	
         50.36000000	        -42.60353533	         16.86370047	        -27.66618321	          7.08700750	         54.58874201	        -16.84364364	
         50.37000000	        -36.17913537	         16.86370047	        -27.66618321	          7.08700750	         54.58874201	        -16.84364364	
         50.38000000	        -29.75473540	         16.86370047	        -27.66618321	          7.08700750	         54.58874201	        -16.84364364	
         50.39000000	        -23.33033544	         16.86370047	        -27.66618321	          7.08700750	         54.58874201	        -16.84364364	
         50.40000000	        -16.90593547	         16.86370047	        -27.66618321	          7.08700750	         54.58874201	        -16.84364364	
         50.41000000	        -49.02793530	         -7.65248351	        -17.92766020	          7.08700750	         54.58874201	        -16.84364364	
         50.42000000	        -42.60353533	         -7.65248351	        -17.92766020	          7.08700750	         54.58874201	        -16.84364364	
         50.43000000	        -36.17913537	         -7.65248351	        -17.92766020	          7.08700750	         54.58874201	        -16.84364364	
         50.44000000	        -29.75473540	         -7.65248351	        -17.92766020	          7.08700750	         54.58874201	        -16.84364364	
         50.45000000	        -23.33033544	         -7.65248351	        -17.92766020	          7.08700750	         54.58874201	        -16.84364364	
         50.46000000	        -16.90593547	         -7.65248351	        -17.92766020	          7.08700750	         54.58874201	        -16.84364364	
         50.47000000	        -49.02793530	         -2.74924671	        -17.92766020	          7.08700750	         54.58874201	        -16.84364364	
